<svg width="209" height="208" viewBox="0 0 209 208" fill="none" xmlns="http://www.w3.org/2000/svg">
<path d="M103.407 43.4751V43.4719C105.249 43.717 106.653 45.2967 106.653 47.1697V162.086C106.653 164.156 104.958 165.817 102.907 165.817C100.825 165.817 99.1611 164.126 99.1611 162.086V47.2059C99.1611 45.1361 100.856 43.4751 102.907 43.4751H103.407Z" fill="white" stroke="#2C3832" stroke-miterlimit="10"/>
<path d="M103.407 166.767V166.757H102.907C100.315 166.757 98.2178 164.665 98.2178 162.086V47.2058C98.2178 44.627 100.315 42.5349 102.907 42.5349C105.5 42.5349 107.597 44.627 107.597 47.2058V162.123C107.597 164.533 105.764 166.519 103.407 166.767ZM103.407 43.411V43.3429H102.907C100.782 43.3429 99.0686 45.0476 99.0686 47.1696V162.086C99.0686 164.208 100.782 165.913 102.907 165.913C105.033 165.913 106.746 164.208 106.746 162.086V47.2058C106.746 45.253 105.295 43.6537 103.407 43.411Z" fill="#070707" stroke="#2C3832" stroke-miterlimit="10"/>
<path d="M164.32 105.164H164.323C164.076 107.005 162.488 108.431 160.61 108.431H45.2421C43.1632 108.431 41.4961 106.742 41.4961 104.664C41.4961 102.595 43.1912 100.934 45.2421 100.934H160.574C162.655 100.934 164.32 102.625 164.32 104.664V105.164Z" fill="white" stroke="#2C3832" stroke-miterlimit="10"/>
<path d="M160.574 109.335H45.2423C42.6498 109.335 40.5527 107.243 40.5527 104.664C40.5527 102.085 42.6498 99.9934 45.2423 99.9934H160.574C163.166 99.9934 165.264 102.085 165.264 104.664C165.264 107.243 163.166 109.335 160.574 109.335ZM45.2423 100.838C43.117 100.838 41.4036 102.542 41.4036 104.664C41.4036 106.786 43.117 108.491 45.2423 108.491H160.574C162.699 108.491 164.413 106.786 164.413 104.664C164.413 102.542 162.699 100.838 160.574 100.838H45.2423Z" fill="#070707" stroke="#2C3832" stroke-miterlimit="10"/>
<path d="M156.298 104.628C156.298 133.929 132.318 157.826 102.906 157.826C73.4949 157.826 49.5146 133.929 49.5146 104.628C49.5146 75.327 73.4949 51.4304 102.906 51.4304C132.318 51.4304 156.298 75.327 156.298 104.628Z" fill="white" stroke="#2C3832" stroke-miterlimit="10"/>
<path d="M102.906 158.766C72.9506 158.766 48.5713 134.471 48.5713 104.664C48.5713 74.8567 72.951 50.5264 102.906 50.5264C132.862 50.5264 157.242 74.8208 157.242 104.664C157.242 134.507 132.863 158.766 102.906 158.766ZM102.906 51.3705C73.418 51.3705 49.4221 75.2776 49.4221 104.664C49.4221 134.051 73.4185 157.922 102.906 157.922C132.395 157.922 156.391 134.015 156.391 104.664C156.391 75.3139 132.395 51.3705 102.906 51.3705Z" fill="#070707" stroke="#2C3832" stroke-miterlimit="10"/>
<path d="M139.987 45.0435L139.841 44.8977H139.811C138.225 43.1663 138.271 40.4463 139.951 38.773L168.631 10.1964L202.979 44.3854L174.302 72.9591C172.573 74.6812 169.732 74.6812 168.003 72.9591L139.987 45.0435Z" fill="white" stroke="#2C3832" stroke-miterlimit="10"/>
<path d="M168.63 8.89526L204.248 44.3855L174.918 73.6102L174.918 73.6102L174.912 73.6161C173.926 74.6312 172.572 75.164 171.097 75.164H170.508C169.313 75.0253 168.192 74.4922 167.31 73.6434C167.309 73.6425 167.308 73.6416 167.307 73.6407L139.297 45.7308L139.297 45.7308L139.291 45.7251C138.271 44.7417 137.738 43.3925 137.738 41.9627C137.738 40.5429 138.301 39.1855 139.3 38.1555L168.63 8.89526ZM168.13 9.5887V10.6213L139.897 38.7519C139.038 39.6086 138.589 40.7501 138.589 41.9266C138.589 43.1322 139.033 44.2788 139.902 45.1054L167.914 73.0169C169.633 74.73 172.598 74.73 174.317 73.0169L202.697 44.7397L203.052 44.3855L202.697 44.0313L168.983 10.4385L168.13 9.5887Z" fill="#070707" stroke="#2C3832" stroke-miterlimit="10"/>
<path d="M205.355 44.5581L205.354 44.5586L202.121 45.5549L167.491 11.0499L168.49 7.83129L168.49 7.8313L168.491 7.82805C168.758 6.94598 169.135 6.50353 169.508 6.29528C169.881 6.08709 170.345 6.06029 170.9 6.20888C172.035 6.51299 173.319 7.49312 174.265 8.43502L204.749 38.8095C205.676 39.7337 206.567 41.0364 206.828 42.1824C206.956 42.7467 206.922 43.2242 206.722 43.6006C206.526 43.9695 206.127 44.3234 205.355 44.5581Z" fill="white" stroke="#2C3832" stroke-miterlimit="10"/>
<path d="M201.86 46.5962L166.474 11.3378L167.62 7.57731C167.62 7.57701 167.62 7.57671 167.62 7.57641C167.954 6.49416 168.455 5.91997 168.924 5.60936C169.4 5.29443 169.894 5.21777 170.263 5.21777C171.154 5.21777 172.108 5.63611 172.97 6.19873C173.823 6.75505 174.529 7.41453 174.91 7.8122L174.91 7.81229L174.918 7.82013L205.402 38.1946C206.097 38.887 206.805 39.8007 207.274 40.7666C207.748 41.7396 207.951 42.7054 207.739 43.5385L207.739 43.5384L207.737 43.546C207.593 44.1485 207.133 45.0419 205.622 45.4583L205.622 45.4581L205.611 45.4617L201.86 46.5962ZM168.442 7.79134L167.642 10.4373H166.767L167.624 11.2915L201.882 45.4266L202.093 45.637L202.379 45.5513L205.391 44.6473L205.391 44.6474L205.4 44.6446C205.974 44.4608 206.346 44.2114 206.584 43.9481C206.824 43.6831 206.899 43.4366 206.929 43.3179C207.103 42.6653 206.878 41.8566 206.507 41.1079C206.122 40.3305 205.526 39.5093 204.802 38.788L174.318 8.37757L174.318 8.37736C173.623 7.68482 172.892 7.10631 172.207 6.69752C171.536 6.29773 170.852 6.02578 170.263 6.02578H170.261C170.108 6.02577 169.75 6.02575 169.371 6.2937C169 6.55588 168.679 7.02182 168.443 7.7885L168.443 7.78849L168.442 7.79134Z" fill="#070707" stroke="#2C3832" stroke-miterlimit="10"/>
<path d="M41.1134 135.466L69.1298 163.381C70.8571 165.102 70.8571 167.931 69.1298 169.652L40.4502 198.228L6.13807 164.04L34.8151 135.466C36.5434 133.744 39.3851 133.744 41.1134 135.466Z" fill="white" stroke="#2C3832" stroke-miterlimit="10"/>
<path d="M69.7838 170.266L40.433 199.512L4.83223 164.003L34.1627 134.779C36.1813 132.767 39.7488 132.767 41.7674 134.779L69.7838 162.694C71.874 164.777 71.874 168.184 69.7838 170.266ZM6.38403 163.649L6.02857 164.003L6.38403 164.358L40.098 197.95L40.451 198.302L40.8039 197.95L69.1832 169.673C70.9398 167.923 70.9398 165.038 69.1832 163.288L41.1668 135.372C39.4475 133.659 36.4826 133.659 34.7633 135.372L6.38403 163.649Z" fill="#070707" stroke="#2C3832" stroke-miterlimit="10"/>
<path d="M33.999 199.104V199.14L4.36782 169.616C3.44033 168.692 2.5497 167.389 2.28869 166.243C2.16015 165.679 2.19461 165.201 2.39466 164.825C2.59068 164.456 2.98946 164.102 3.76121 163.867L3.76121 163.867L3.76295 163.867L6.9959 162.87L41.5914 197.341L40.6254 200.561C40.6253 200.561 40.6252 200.562 40.6251 200.562C40.3579 201.443 39.9818 201.886 39.6088 202.094C39.2358 202.302 38.7714 202.329 38.2166 202.18C37.0813 201.876 35.7973 200.896 34.852 199.954L33.999 199.104Z" fill="white" stroke="#2C3832" stroke-miterlimit="10"/>
<path d="M34.2064 200.649L34.2065 200.649L34.1986 200.641L3.71446 170.266C3.01954 169.574 2.31188 168.66 1.84204 167.698C1.36826 166.728 1.1663 165.773 1.37767 164.961L1.37776 164.961L1.38009 164.951C1.52402 164.349 1.98544 163.451 3.50381 163L3.50381 163L3.50631 162.999L7.28485 161.856L42.679 197.123L41.5333 200.884C41.5333 200.884 41.5332 200.884 41.5332 200.884C41.1988 201.967 40.6986 202.541 40.2291 202.852C39.7532 203.167 39.259 203.243 38.8901 203.243H38.8538C37.9626 203.243 37.0089 202.825 36.1466 202.262C35.294 201.706 34.5881 201.046 34.2064 200.649ZM7.23465 162.998L7.0235 162.788L6.73801 162.873L3.72589 163.777L3.72588 163.777L3.7219 163.779C3.1307 163.962 2.75288 164.211 2.51463 164.482C2.27672 164.752 2.21379 165.004 2.18896 165.103C2.18864 165.105 2.18832 165.106 2.18801 165.107C2.01391 165.76 2.23862 166.568 2.6096 167.317C2.9948 168.094 3.59118 168.916 4.31509 169.637L34.7992 200.011C35.4943 200.704 36.2248 201.282 36.9102 201.691C37.5805 202.091 38.2647 202.363 38.8538 202.363H38.8562C39.0087 202.363 39.3664 202.363 39.7456 202.095C40.1167 201.833 40.4375 201.367 40.6743 200.6L40.6752 200.597L41.5824 197.596L41.6692 197.309L41.4567 197.097L7.23465 162.998Z" fill="#070707" stroke="#2C3832" stroke-miterlimit="10"/>
<path d="M135.92 167.431L163.937 139.515C165.665 137.793 168.507 137.793 170.235 139.515L198.912 168.089L164.6 202.278L135.92 173.701C134.193 171.98 134.193 169.152 135.92 167.431Z" fill="white" stroke="#2C3832" stroke-miterlimit="10"/>
<path d="M164.248 202.036L164.601 202.388L164.954 202.036L198.668 168.443L199.023 168.089L198.668 167.735L170.288 139.458C169.429 138.601 168.284 138.155 167.105 138.155H167.069C165.847 138.155 164.704 138.641 163.885 139.458L135.869 167.373C134.112 169.124 134.112 172.009 135.869 173.759L164.248 202.036ZM164.565 203.58L135.232 174.352C133.142 172.27 133.142 168.863 135.232 166.78L163.248 138.864C165.267 136.853 168.834 136.853 170.853 138.864L200.183 168.089L164.565 203.58Z" fill="#070707" stroke="#2C3832" stroke-miterlimit="10"/>
<path d="M165.387 206.006C165.016 205.81 164.662 205.414 164.426 204.647C164.426 204.646 164.426 204.646 164.426 204.645L163.46 201.427L198.056 166.956L201.289 167.952L201.292 167.953C202.178 168.22 202.623 168.595 202.831 168.966C203.04 169.337 203.067 169.798 202.918 170.35C202.672 171.259 201.989 172.264 201.238 173.113L200.684 173.665L170.2 204.04C169.273 204.964 167.965 205.852 166.813 206.112C166.246 206.24 165.766 206.206 165.387 206.006Z" fill="white" stroke="#2C3832" stroke-miterlimit="10"/>
<path d="M201.545 167.049L201.547 167.05C203.182 167.538 203.681 168.446 203.857 169.053C204.094 169.977 203.758 171.021 203.17 172.016C202.588 172.998 201.814 173.841 201.337 174.316L170.853 204.691C170.264 205.277 169.493 205.89 168.663 206.353C167.827 206.819 166.969 207.112 166.198 207.112H166.162C165.784 207.112 165.275 207.041 164.793 206.747C164.322 206.459 163.831 205.931 163.518 204.934C163.518 204.933 163.518 204.932 163.518 204.932L162.373 201.173L197.767 165.906L201.545 167.049ZM164.149 200.595L163.559 201.183L163.522 201.219L163.856 201.554L163.433 201.682L164.34 204.683C164.34 204.683 164.34 204.683 164.34 204.683C164.525 205.296 164.802 205.712 165.159 205.967C165.516 206.222 165.888 206.268 166.162 206.268C166.773 206.268 167.486 206.016 168.171 205.642C168.867 205.261 169.585 204.726 170.216 204.097L200.7 173.723C201.488 172.938 202.119 172.123 202.528 171.376C202.921 170.657 203.167 169.896 203.01 169.269C202.833 168.564 202.123 168.128 201.297 167.866L201.297 167.866L201.289 167.863L198.277 166.959L197.992 166.874L197.781 167.084L164.149 200.595Z" fill="#070707" stroke="#2C3832" stroke-miterlimit="10"/>
<path d="M45.1788 68.9091L45.0317 69.0556V69.0852C43.293 70.666 40.5607 70.6193 38.8805 68.9452L10.2035 40.3713L44.5517 6.14673L73.195 34.7227L73.1952 34.7229C74.9225 36.444 74.9225 39.2724 73.1952 40.9935L45.1788 68.9091Z" fill="white" stroke="#2C3832" stroke-miterlimit="10"/>
<path d="M73.8855 34.0723L73.8855 34.0724L73.8914 34.0781C74.9112 35.0615 75.4441 36.4106 75.4441 37.8404C75.4441 39.2602 74.8815 40.6176 73.8825 41.6476C73.8816 41.6485 73.8807 41.6495 73.8798 41.6504L45.8691 69.5602L45.8691 69.5602L45.8634 69.566C44.8763 70.5823 43.5215 71.1139 42.0849 71.1139H41.8784L41.8459 71.1463C40.4934 71.0958 39.2098 70.5416 38.2251 69.5934C38.2242 69.5925 38.2232 69.5915 38.2223 69.5906L8.89784 40.3716L44.5527 4.845L73.8855 34.0723ZM10.4495 40.0174L10.094 40.3716L10.4495 40.7258L38.8287 69.003C40.5481 70.7161 43.5129 70.7161 45.2322 69.003L73.2486 41.0874C74.1084 40.2307 74.557 39.0892 74.557 37.9127C74.557 36.7458 74.1146 35.5624 73.2447 34.7341L44.9063 6.38918L44.5534 6.03618L44.1998 6.3885L10.4495 40.0174Z" fill="#070707" stroke="#2C3832" stroke-miterlimit="10"/>
<path d="M44.6912 3.7795L44.6917 3.78125L45.6908 6.99988L11.0589 41.5071L7.82504 40.5438C7.82497 40.5437 7.82489 40.5437 7.82482 40.5437C6.93863 40.2771 6.49456 39.9018 6.28589 39.5306C6.07761 39.1601 6.05063 38.6989 6.19952 38.147C6.50445 37.0168 7.48763 35.7377 8.43313 34.7956L8.58021 34.6491V34.6129L38.9173 4.38498C39.8446 3.46098 41.1525 2.57305 42.3037 2.31271C42.8709 2.18445 43.3515 2.21874 43.7304 2.41866C44.1012 2.61434 44.4559 3.01169 44.6912 3.7795Z" fill="white" stroke="#2C3832" stroke-miterlimit="10"/>
<path d="M46.7078 7.2877L11.3138 42.5186L7.53513 41.3756L7.53356 41.3752C5.90152 40.8873 5.40102 39.982 5.22464 39.3759C5.00346 38.4477 5.3418 37.4013 5.92533 36.4077C6.50275 35.4244 7.26819 34.5819 7.74323 34.1086C7.74325 34.1086 7.74326 34.1086 7.74328 34.1085L38.2635 3.73427L38.2637 3.73406C38.8525 3.14741 39.6238 2.53486 40.4542 2.07185C41.2901 1.6058 42.1475 1.3125 42.9189 1.3125C43.2964 1.3125 43.8036 1.38355 44.2846 1.68081C44.7556 1.97182 45.2487 2.50842 45.562 3.52672C45.562 3.52677 45.562 3.52681 45.562 3.52685L46.7078 7.2877ZM8.38041 34.7017L8.3802 34.7019C7.59276 35.4865 6.96173 36.3015 6.55258 37.0489C6.159 37.7679 5.91341 38.5285 6.07071 39.1554C6.24777 39.8611 6.95705 40.2969 7.78362 40.559L7.7836 40.559L7.791 40.5613L10.8031 41.4653L11.0884 41.5509L11.2996 41.3407L45.5579 7.24177L45.7707 7.03003L45.6838 6.74272L44.7767 3.74196C44.592 3.1286 44.3143 2.71227 43.958 2.45774C43.6006 2.20238 43.229 2.15667 42.9552 2.15667C42.344 2.15667 41.631 2.40859 40.9462 2.78294C40.2497 3.16368 39.5316 3.69881 38.9008 4.32723C38.9008 4.3273 38.9007 4.32737 38.9006 4.32744L8.38041 34.7017Z" fill="#070707" stroke="#2C3832" stroke-miterlimit="10"/>
</svg>
